PathFileType	4	(X/Y/Z)	C:/Users/opensim2020/Desktop/walking_exp_matlab/subject02_walking16_run.trc	
DataRate	CameraRate	NumFrames	NumMarkers	Units	OrigDataRate	OrigDataStartFrame	OrigNumFrames	
100.00	100.00	4	51	mm	100.00	246	124	
Frame#	Time	RTOE			LSHO			LELB			RELB			RFIN			LTHI			LKNE			RWRB			RUPA			LTIB			RASI			LANK			LTOE			RSHO			RWRA			RFRM			LASI			STRN			LFHD			RTHI			RFHD			LWRB			LFIN			LUPA			RKNE			RBHD			LFRM			C7			LWRA			RTIB			CLAV			LHEE			RANK			LBHD			RBAK			RHEE			T10			LPSI			RPSI			*39			*40			*41			*42			*43			*44			*45			*46			*47			*48			*49			*50			
		X1	Y1	Z1	X2	Y2	Z2	X3	Y3	Z3	X4	Y4	Z4	X5	Y5	Z5	X6	Y6	Z6	X7	Y7	Z7	X8	Y8	Z8	X9	Y9	Z9	X10	Y10	Z10	X11	Y11	Z11	X12	Y12	Z12	X13	Y13	Z13	X14	Y14	Z14	X15	Y15	Z15	X16	Y16	Z16	X17	Y17	Z17	X18	Y18	Z18	X19	Y19	Z19	X20	Y20	Z20	X21	Y21	Z21	X22	Y22	Z22	X23	Y23	Z23	X24	Y24	Z24	X25	Y25	Z25	X26	Y26	Z26	X27	Y27	Z27	X28	Y28	Z28	X29	Y29	Z29	X30	Y30	Z30	X31	Y31	Z31	X32	Y32	Z32	X33	Y33	Z33	X34	Y34	Z34	X35	Y35	Z35	X36	Y36	Z36	X37	Y37	Z37	X38	Y38	Z38	X39	Y39	Z39	X40	Y40	Z40	X41	Y41	Z41	X42	Y42	Z42	X43	Y43	Z43	X44	Y44	Z44	X45	Y45	Z45	X46	Y46	Z46	X47	Y47	Z47	X48	Y48	Z48	X49	Y49	Z49	X50	Y50	Z50	X51	Y51	Z51	

94	0.930	194.41289	910.99060	204.31621	-159.29105	1354.16309	1437.49341	-275.12198	1256.90027	1125.97913	374.71497	1405.21960	1191.08240	166.92308	1629.63550	1184.67065	-125.71245	1455.44373	659.78571	-75.25671	1516.91248	474.45135	210.10240	1592.21008	1144.21936	321.22791	1377.79016	1323.40601	-67.13493	1474.43896	294.22400	161.38550	1473.78711	943.15100	-11.07952	1453.84778	79.08226	-16.05144	1608.03894	41.11183	194.49992	1409.41199	1476.96790	185.89433	1564.06104	1187.31775	296.67450	1501.85461	1167.30981	-84.04132	1444.74243	958.86646	14.91642	1493.83020	1243.46240	-54.95881	1451.14392	1716.78271	259.52695	1345.73169	634.38483	88.89751	1451.40625	1702.07166	-160.45493	1475.74438	1062.17944	-136.81342	1539.00342	1077.17432	-249.22020	1277.11621	1258.81030	240.99568	1292.52051	444.91510	77.63180	1326.01807	1598.26038	-219.62833	1369.13489	1076.93176	23.29753	1303.43726	1484.11230	-153.81532	1477.89734	1119.24304	215.03207	1112.96448	411.04626	-3.20523	1448.06775	1417.64392	38.55638	1412.24988	53.81839	152.52652	939.70660	358.80249	-63.98168	1337.43396	1616.68787	115.39912	1255.95605	1329.63879	80.20322	899.78204	359.72180	66.34333	1248.64185	1224.39050	14.68732	1246.74316	1006.63245	131.41805	1263.16479	1009.88947				-3356.81592	2846.05371	1034.45251																									31.38962	1335.97437	1761.63354			 
95	0.940	197.14597	983.39069	196.19424	-164.88544	1396.89429	1430.05371	-264.41553	1316.29199	1108.88818	373.73764	1430.52124	1189.75293	179.13901	1662.28198	1152.07764	-121.92418	1487.45605	653.72797	-71.30701	1556.32239	475.57913	222.01608	1620.32764	1116.76587	319.58862	1407.16345	1322.78662	-65.82190	1489.88281	300.96582	156.08241	1509.39648	934.07977	-10.22795	1454.87781	80.80310	-15.66284	1608.64319	40.81249	195.09457	1444.45813	1475.29736	193.73271	1596.35083	1160.18335	301.85559	1527.92053	1153.27710	-88.90924	1479.15369	951.69012	15.89357	1532.58423	1239.05310	-54.35873	1490.16980	1716.48572	258.17438	1404.17273	627.92609	89.52663	1489.83569	1699.61548	-142.02853	1536.28833	1068.42493	-118.51379	1598.30920	1090.25757	-245.61768	1329.67871	1242.82739	242.28654	1357.64600	437.35727	76.11481	1364.95410	1595.64417	-203.97852	1430.68396	1071.86511	18.44134	1342.27771	1481.86267	-139.60063	1533.99341	1125.73413	218.49861	1179.44946	402.15326	-3.43129	1487.32080	1413.22278	39.39827	1413.20984	55.06629	157.16586	1005.78326	351.30139	-65.69723	1377.10510	1616.26831	109.84069	1292.84338	1325.31421	85.80664	962.59375	352.67041	64.64755	1286.25952	1222.43042	20.99217	1280.39282	1001.23749	135.64667	1301.15918	997.89789				-3356.89575	2846.05005	1034.33191																									32.39127	1374.43738	1759.78284			 
96	0.950	200.82123	1058.54773	186.20142	-167.93924	1440.05725	1424.88708	-253.95714	1377.24548	1096.75488	372.48419	1456.34070	1190.27319	193.29155	1691.61365	1119.77307	-119.18562	1522.11804	647.40131	-67.53510	1583.62927	470.38980	235.79088	1645.41248	1091.00769	316.88647	1435.98718	1323.18420	-61.30544	1499.75049	298.25723	151.33829	1544.61426	925.00726	-9.31022	1456.09680	80.32927	-15.36668	1609.13916	40.62479	194.98749	1479.82275	1474.54175	203.16833	1626.20386	1134.22449	307.27896	1553.19287	1141.02466	-97.18315	1512.34509	946.31799	17.12412	1571.30237	1237.60022	-53.62636	1529.26892	1716.35315	257.06082	1459.59180	624.99237	89.96082	1528.14868	1697.03235	-123.06274	1596.33118	1080.05225	-99.18510	1655.64526	1108.36682	-240.58881	1383.08777	1233.09082	241.18805	1423.58630	431.32080	74.16650	1403.12097	1593.89294	-188.03619	1492.68213	1071.63379	14.82588	1383.66699	1482.16748	-124.53445	1589.55444	1137.03101	221.92781	1247.53186	393.99631	-2.99574	1525.94043	1411.94604	40.10113	1413.51868	56.23385	162.71036	1073.59888	342.10580	-66.90817	1416.17212	1616.58728	105.31765	1330.20520	1322.79456	92.31937	1027.03735	342.95950	63.38614	1323.59241	1221.68872	24.82347	1316.86670	999.76617	138.42290	1336.69653	993.36743				-3356.63672	2846.17529	1034.30176																									32.55184	1412.60547	1758.40686			 
97	0.960	205.38600	1136.09424	174.41628	-168.83392	1483.65063	1422.49048	-243.60820	1439.47461	1088.93665	372.25201	1481.95178	1192.27673	208.31833	1716.95117	1090.35327	-119.18106	1552.89990	644.34192	-64.31090	1599.95129	462.32224	250.98537	1667.12354	1068.85608	314.17892	1465.16650	1325.00269	-56.95456	1509.79578	293.89270	147.45346	1581.02161	916.30023	-8.02478	1457.80688	79.60123	-15.18742	1609.19312	40.50137	193.25276	1514.68420	1474.74316	214.46060	1653.14490	1111.69629	313.61319	1577.79248	1131.58618	-103.21827	1545.26147	940.92426	18.26920	1609.36902	1236.27820	-53.08054	1568.61108	1715.82446	257.06296	1514.42944	623.82727	90.27489	1566.75110	1694.74768	-104.82555	1655.23352	1097.14648	-80.22513	1710.61157	1131.39490	-235.28377	1437.47461	1226.65881	239.88986	1490.47229	429.14102	72.59054	1441.13916	1592.58386	-172.31061	1554.64734	1076.27625	11.39567	1424.45496	1483.29932	-109.57772	1643.72131	1153.31335	224.97266	1316.69763	386.92526	-2.86570	1564.94641	1410.79993	41.69027	1414.04785	57.37186	168.46005	1142.63025	330.51166	-68.10487	1455.08679	1616.96545	102.39169	1367.51709	1322.08777	99.55341	1092.89233	330.30518	62.29058	1361.13232	1221.27942	26.96550	1353.52551	1000.87152	140.04678	1371.08118	1000.81958				-3356.77148	2846.15063	1034.45142																									32.99920	1451.77051	1757.39746			 
